<?xml version="1.0" encoding="utf-8"?>
<svg version="1.1" xmlns:xlink="http://www.w3.org/1999/xlink" width="20px" height="20px" viewBox="1207 592  20 20" xmlns="http://www.w3.org/2000/svg">
  <path d="M 1217 592  C 1222.6 592  1227 596.4  1227 602  C 1227 607.6  1222.6 612  1217 612  C 1211.4 612  1207 607.6  1207 602  C 1207 596.4  1211.4 592  1217 592  Z " fill-rule="nonzero" fill="#ffffff" stroke="none" />
  <path d="M 1217 592.5  C 1222.32 592.5  1226.5 596.68  1226.5 602  C 1226.5 607.32  1222.32 611.5  1217 611.5  C 1211.68 611.5  1207.5 607.32  1207.5 602  C 1207.5 596.68  1211.68 592.5  1217 592.5  Z " stroke-width="1" stroke="#797979" fill="none" />
  <path d="M 1217 607  C 1214.2 607  1212 604.8  1212 602  C 1212 599.2  1214.2 597  1217 597  C 1219.8 597  1222 599.2  1222 602  C 1222 604.8  1219.8 607  1217 607  " fill-rule="nonzero" fill="#797979" stroke="none" />
</svg>