<?xml version="1.0" encoding="UTF-8"?>
<svg width="360px" height="180px" viewBox="0 0 360 180" version="1.1" xmlns="http://www.w3.org/2000/svg" xmlns:xlink="http://www.w3.org/1999/xlink">
    <title>rocket</title>
    <g id="rocket" stroke="none" stroke-width="1" fill="none" fill-rule="evenodd">
        <g transform="translate(26.086600, 46.107383)" fill-rule="nonzero">
            <path d="M12.1131059,52.5503356 C12.1131059,52.5503356 -1.38328679,57.7852349 0.116312403,87.1812081 L20.710808,75.8053691 C20.710808,75.8053691 12.1131059,52.5503356 12.1131059,52.5503356 Z" id="路径" fill="#FCEBEB"></path>
            <path d="M55.7014557,52.5503356 C55.7014557,52.5503356 69.1978485,57.7852349 67.7982225,87.1812081 L47.203727,75.8053691 L55.7014557,52.5503356 Z" id="路径" fill="#FCEBEB"></path>
            <path d="M55.7014557,45.5033557 C55.7014557,20.3355705 45.9040744,0 33.9072808,0 C21.9104873,0 12.2130792,20.3355705 12.2130792,45.5033557 C12.2130792,61.9127517 16.4119569,76.2080537 22.510327,84.261745 C22.510327,84.3624161 22.6103003,84.3624161 22.6103003,84.4630872 C22.8102468,84.6644295 33.5073877,77.2147651 44.3045019,84.5637584 C44.5044484,84.5637584 44.6044217,84.5637584 44.8043683,84.5637584 C45.0043148,84.5637584 45.2042614,84.4630872 45.3042347,84.3624161 C45.3042347,84.3624161 45.404208,84.261745 45.404208,84.1610738 C51.6025513,76.2080537 55.7014557,61.8120805 55.7014557,45.5033557 Z" id="路径" fill="#EEEEEE"></path>
            <text id="UP" fill="#ffffff" font-family="Helvetica" font-size="14" font-weight="normal">
                <tspan x="25.6258943" y="51.0971141">UP</tspan>
            </text>
        </g>
        <g id="rocket-hover" transform="translate(145.000000, 45.000000)" fill-rule="nonzero">
            <path d="M13.1997056,53.6577181 C13.1997056,53.6577181 -0.296687102,58.8926174 1.20291209,88.2885906 L21.7974076,76.9127517 C21.7974076,76.9127517 13.1997056,53.6577181 13.1997056,53.6577181 Z" id="路径" fill="#FCEBEB"></path>
            <path d="M22.997087,77.4161074 L0.203179295,90 L0.103206015,88.3892617 C-0.69658022,71.5771812 3.30235096,62.5167785 6.90138901,57.885906 C9.90058739,53.9597315 12.6998392,52.852349 12.7998125,52.852349 L13.7995453,52.449362 C13.7995453,52.3489933 22.997087,77.4161074 22.997087,77.4161074 Z M2.1026716,86.5771812 L20.3977817,76.409396 L12.5998659,55.0671141 C11.7001064,55.6711409 10.100534,56.8791946 8.50096148,58.9932886 C5.30181654,63.3221477 1.70277849,71.4765101 2.1026716,86.5771812 Z" id="形状" fill="#380505"></path>
            <path d="M56.7880554,53.6577181 C56.7880554,53.6577181 70.2844481,58.8926174 68.8848222,88.2885906 L48.2903267,76.9127517 L56.7880554,53.6577181 Z" id="路径" fill="#FCEBEB"></path>
            <path d="M69.884555,90 L47.0906473,77.4161074 L56.288189,52.3489933 L57.2879218,52.7516779 C57.7877882,52.852349 71.3841542,58.4899329 69.884555,88.2885906 C69.884555,88.2885906 69.884555,90 69.884555,90 Z M49.5899793,76.409396 L67.8850894,86.5771812 C68.5849024,64.1275168 60.1871469,56.9798658 57.2879218,55.1677852 C57.3878951,55.1677852 49.5899793,76.409396 49.5899793,76.409396 Z" id="形状" fill="#380505"></path>
            <path d="M56.7880554,46.6107383 C56.7880554,21.442953 46.990674,1.10738255 34.9938805,1.10738255 C22.997087,1.10738255 13.2996789,21.442953 13.2996789,46.6107383 C13.2996789,63.0201342 17.4985566,77.3154362 23.5969267,85.3691275 C23.5969267,85.4697987 23.6968999,85.4697987 23.6968999,85.5704698 C23.8968465,85.7718121 34.5939874,78.3221477 45.3911016,85.6711409 C45.5910481,85.6711409 45.6910214,85.6711409 45.890968,85.6711409 C46.0909145,85.6711409 46.2908611,85.5704698 46.3908344,85.4697987 C46.3908344,85.4697987 46.4908076,85.3691275 46.4908076,85.2684564 C52.689151,77.3154362 56.7880554,62.9194631 56.7880554,46.6107383 Z" id="路径" fill="#FCEBEB"></path>
            <path d="M47.1906206,86.0738255 L47.0906473,86.2751678 C46.7907275,86.5771812 46.2908611,86.6778523 45.890968,86.6778523 C45.5910481,86.6778523 45.191155,86.5771812 44.8912352,86.3758389 C39.092785,82.4496644 32.3945753,82.3489933 24.9965526,86.0738255 C24.1967663,86.4765101 23.6968999,86.6778523 23.1970336,86.2751678 C23.0970603,86.1744966 22.997087,86.0738255 22.8971137,85.9731544 C16.2988773,77.4161074 12.2999461,62.7181208 12.2999461,46.6107383 C12.2999461,30.6040268 16.198904,15.9060403 22.6971672,7.34899329 C26.3961785,2.51677852 30.5950562,0 35.0938538,0 C47.690487,0 57.8877615,20.9395973 57.8877615,46.5100671 C57.8877615,62.5167785 53.9888036,77.2147651 47.4905404,85.7718121 C47.3905672,85.7718121 47.1906206,86.0738255 47.1906206,86.0738255 Z M24.0967931,84.261745 C32.0946554,80.3355705 39.3927048,80.4362416 45.7909947,84.5637584 C51.989338,76.3087248 55.7883226,62.114094 55.7883226,46.6107383 C55.7883226,22.0469799 46.4908076,2.11409396 34.9938805,2.11409396 C31.1948959,2.11409396 27.4958846,4.32885906 24.2967396,8.65771812 C17.998423,16.9127517 14.2994117,31.1073826 14.2994117,46.6107383 C14.2994117,62.0134228 17.998423,76.0067114 24.0967931,84.261745 Z" id="形状" fill="#380505"></path>
            <path d="M55.2884562,58.3892617 L13.9994918,58.1879195 C14.2994117,60.1006711 14.6993048,62.114094 15.1991712,64.0268456 L54.1887502,64.2281879 C54.5886433,62.3154362 54.9885364,60.3020134 55.2884562,58.3892617 Z" id="路径" fill="#F26B6B"></path>
            <path d="M54.9885364,65.2348993 L14.399385,65.033557 L14.1994384,64.2281879 C13.699572,62.3154362 13.3996522,60.3020134 12.9997591,58.2885906 L12.7998125,57.0805369 L56.4881356,57.2818792 L56.288189,58.4899329 C55.9882692,60.5033557 55.5883761,62.4161074 55.0885097,64.4295302 L54.9885364,65.2348993 L54.9885364,65.2348993 Z M15.9989574,63.0201342 L53.3889639,63.2214765 C53.6888838,62.0134228 53.8888303,60.704698 54.1887502,59.3959732 L15.2991445,59.1946309 C15.499091,60.5033557 15.6990376,61.7114094 15.9989574,63.0201342 Z" id="形状" fill="#380505"></path>
            <path d="M53.4889372,70.8724832 L16.6987704,70.8724832 C16.9986902,72.2818792 17.6985032,74.0939597 18.5982627,75.704698 L51.5894449,75.9060403 C52.2892579,74.5973154 53.0890441,72.2818792 53.4889372,70.8724832 Z" id="路径" fill="#F26B6B"></path>
            <path d="M52.0893113,76.9127517 L17.8984497,76.7114094 L17.5985299,76.2080537 C16.7987437,74.6979866 15.9989574,72.885906 15.5990643,71.1744966 L15.2991445,69.8657718 L54.6886166,69.8657718 L54.3886967,71.1744966 C53.9888036,72.6845638 53.1890174,75.1006711 52.3892311,76.409396 L52.0893113,76.9127517 Z M19.0981291,74.6979866 L50.8896319,74.7986577 C51.2895251,73.9932886 51.6894182,72.885906 52.0893113,71.8791946 L17.998423,71.8791946 C18.2983429,72.885906 18.698236,73.7919463 19.0981291,74.6979866 Z" id="形状" fill="#380505"></path>
            <path d="M29.2954036,41.2751678 C33.3943081,44.3959732 39.1927583,43.6912752 42.3919032,39.5637584 C45.5910481,35.4362416 44.7912619,29.5973154 40.6923574,26.3758389 C36.593453,23.1543624 30.7950028,23.9597315 27.5958578,28.0872483 C24.3967129,32.2147651 25.1964991,38.1543624 29.2954036,41.2751678 Z" id="路径" fill="#F26B6B"></path>
            <path d="M43.1916894,40.1677852 C39.6926247,44.6979866 33.1943615,45.6040268 28.6955639,42.0805369 C24.1967663,38.557047 23.2970068,32.0134228 26.7960716,27.4832215 C30.2951364,22.9530201 36.7933995,22.0469799 41.2921971,25.5704698 C45.7909947,29.0939597 46.6907542,35.6375839 43.1916894,40.1677852 Z M28.3956441,28.7919463 C25.5963923,32.4161074 26.2962052,37.6510067 29.8952433,40.4697987 C33.4942813,43.2885906 38.7928651,42.5838926 41.4921437,38.9597315 C44.2913955,35.3355705 43.5915825,30.1006711 39.9925445,27.2818792 C36.3935064,24.4630872 31.1948959,25.1677852 28.3956441,28.7919463 Z" id="形状" fill="#380505"></path>
            <path d="M30.8949761,27.1812081 C33.4942813,25.9731544 36.593453,26.9798658 38.7928651,29.0939597 C43.5915825,33.7248322 39.3927048,40.4697987 38.6928919,40.9731544 C39.7925979,40.4697987 40.7923307,39.6644295 41.592117,38.6577181 C44.2913955,35.1342282 43.5915825,30.2013423 40.0925178,27.4832215 C37.3932392,25.2684564 33.5942546,25.2684564 30.8949761,27.1812081 Z" id="路径" fill="#FCEBEB"></path>
        </g>
        <g id="rocket-active" transform="translate(265.000000, 45.000000)" fill-rule="nonzero">
            <path d="M35.7936668,92.1531612 C36.6934263,92.1531612 37.4932125,93.0507569 37.4932125,94.1478183 L37.4932125,104.918967 C37.4932125,106.016028 36.7933995,107.013357 35.7936668,107.013357 C34.8939072,107.013357 34.094121,106.115761 34.094121,105.0187 L34.094121,94.2475512 C34.1940943,93.1504898 34.8939072,92.1531612 35.7936668,92.1531612 Z M45.5910481,97.1398041 C46.4908076,97.1398041 47.2905939,98.0373998 47.2905939,99.1344613 L47.2905939,109.90561 C47.2905939,111.002671 46.5907809,112 45.5910481,112 C44.6912886,112 43.8915024,111.102404 43.8915024,110.005343 L43.8915024,99.2341941 C43.8915024,98.0373998 44.5913153,97.1398041 45.5910481,97.1398041 Z M26.0962587,97.1398041 C26.9960182,97.1398041 27.7958044,98.0373998 27.7958044,99.1344613 L27.7958044,109.90561 C27.7958044,111.002671 27.0959914,112 26.0962587,112 C25.1964991,112 24.3967129,111.102404 24.3967129,110.005343 L24.3967129,99.2341941 C24.4966862,96.3419412 26.4961518,97.1398041 26.0962587,97.1398041 Z" id="形状" fill="#F26B6B"></path>
            <path d="M13.1997056,53.1576135 C13.1997056,53.1576135 -0.296687102,58.3437222 1.20291209,87.4657168 L21.7974076,76.1959038 C21.7974076,76.1959038 13.1997056,53.1576135 13.1997056,53.1576135 Z" id="路径" fill="#FCEBEB"></path>
            <path d="M22.997087,76.6945681 L0.203179295,89.1611754 L0.103206015,87.5654497 C-0.69658022,70.9100623 3.30235096,61.9341051 6.90138901,57.3463936 C9.90058739,53.4568121 12.6998392,52.3597507 12.7998125,52.3597507 L13.7995453,51.9605196 C13.7995453,51.8610864 22.997087,76.6945681 22.997087,76.6945681 Z M2.1026716,85.7702582 L20.3977817,75.6972395 L12.5998659,54.5538736 C11.7001064,55.1522707 10.100534,56.349065 8.50096148,58.443455 C5.30181654,62.7319679 1.70277849,70.8103295 2.1026716,85.7702582 Z" id="形状" fill="#380505"></path>
            <path d="M56.7880554,53.1576135 C56.7880554,53.1576135 70.2844481,58.3437222 68.8848222,87.4657168 L48.2903267,76.1959038 L56.7880554,53.1576135 Z" id="路径" fill="#FCEBEB"></path>
            <path d="M69.884555,89.1611754 L47.0906473,76.6945681 L56.288189,51.8610864 L57.2879218,52.2600178 C57.7877882,52.3597507 71.3841542,57.9447907 69.884555,87.4657168 C69.884555,87.4657168 69.884555,89.1611754 69.884555,89.1611754 Z M49.5899793,75.6972395 L67.8850894,85.7702582 C68.5849024,63.5298308 60.1871469,56.4487979 57.2879218,54.6536064 C57.3878951,54.6536064 49.5899793,75.6972395 49.5899793,75.6972395 Z" id="形状" fill="#380505"></path>
            <path d="M56.7880554,46.1763134 C56.7880554,21.2430988 46.990674,1.09706144 34.9938805,1.09706144 C22.997087,1.09706144 13.2996789,21.2430988 13.2996789,46.1763134 C13.2996789,62.4327694 17.4985566,76.5948353 23.5969267,84.5734639 C23.5969267,84.6731968 23.6968999,84.6731968 23.6968999,84.7729297 C23.8968465,84.9723954 34.5939874,77.5921638 45.3911016,84.8726625 C45.5910481,84.8726625 45.6910214,84.8726625 45.890968,84.8726625 C46.0909145,84.8726625 46.2908611,84.7729297 46.3908344,84.6731968 C46.3908344,84.6731968 46.4908076,84.5734639 46.4908076,84.4737311 C52.689151,76.5948353 56.7880554,62.3330365 56.7880554,46.1763134 Z" id="路径" fill="#FCEBEB"></path>
            <path d="M47.1906206,85.2715939 L47.0906473,85.4710597 C46.7907275,85.7702582 46.2908611,85.8699911 45.890968,85.8699911 C45.5910481,85.8699911 45.191155,85.7702582 44.8912352,85.5707925 C39.092785,81.681211 32.3945753,81.5814782 24.9965526,85.2715939 C24.1967663,85.6705254 23.6968999,85.8699911 23.1970336,85.4710597 C23.0970603,85.3713268 22.997087,85.2715939 22.8971137,85.1718611 C16.2988773,76.6945681 12.2999461,62.1335708 12.2999461,46.1763134 C12.2999461,30.318789 16.198904,15.7577916 22.6971672,7.28049866 C26.3961785,2.49332146 30.5950562,-7.08644581e-15 35.0938538,-7.08644581e-15 C47.690487,-7.08644581e-15 57.8877615,20.7444346 57.8877615,46.0765806 C57.8877615,61.9341051 53.9888036,76.4951024 47.4905404,84.9723954 C47.3905672,84.9723954 47.1906206,85.2715939 47.1906206,85.2715939 Z M24.0967931,83.4764025 C32.0946554,79.586821 39.3927048,79.6865539 45.7909947,83.7756011 C51.989338,75.5975067 55.7883226,61.5351736 55.7883226,46.1763134 C55.7883226,21.841496 46.4908076,2.09439003 34.9938805,2.09439003 C31.1948959,2.09439003 27.4958846,4.28851291 24.2967396,8.57702582 C17.998423,16.7551202 14.2994117,30.8174533 14.2994117,46.1763134 C14.2994117,61.4354408 17.998423,75.2983081 24.0967931,83.4764025 Z" id="形状" fill="#380505"></path>
            <path d="M55.2884562,57.8450579 L13.9994918,57.6455922 C14.2994117,59.5405165 14.6993048,61.5351736 15.1991712,63.430098 L54.1887502,63.6295637 C54.5886433,61.7346394 54.9885364,59.7399822 55.2884562,57.8450579 Z" id="路径" fill="#F26B6B"></path>
            <path d="M54.9885364,64.6268923 L14.399385,64.4274265 L14.1994384,63.6295637 C13.699572,61.7346394 13.3996522,59.7399822 12.9997591,57.745325 L12.7998125,56.5485307 L56.4881356,56.7479964 L56.288189,57.9447907 C55.9882692,59.9394479 55.5883761,61.8343722 55.0885097,63.8290294 L54.9885364,64.6268923 L54.9885364,64.6268923 Z M15.9989574,62.4327694 L53.3889639,62.6322351 C53.6888838,61.4354408 53.8888303,60.1389136 54.1887502,58.8423865 L15.2991445,58.6429207 C15.499091,59.9394479 15.6990376,61.1362422 15.9989574,62.4327694 Z" id="形状" fill="#380505"></path>
            <path d="M53.4889372,70.2119323 L16.6987704,70.2119323 C16.9986902,71.6081923 17.6985032,73.4033838 18.5982627,74.9991095 L51.5894449,75.1985752 C52.2892579,73.9020481 53.0890441,71.6081923 53.4889372,70.2119323 Z" id="路径" fill="#F26B6B"></path>
            <path d="M52.0893113,76.1959038 L17.8984497,75.9964381 L17.5985299,75.4977738 C16.7987437,74.0017809 15.9989574,72.2065895 15.5990643,70.5111309 L15.2991445,69.2146037 L54.6886166,69.2146037 L54.3886967,70.5111309 C53.9888036,72.0071238 53.1890174,74.4007124 52.3892311,75.6972395 L52.0893113,76.1959038 Z M19.0981291,74.0017809 L50.8896319,74.1015138 C51.2895251,73.3036509 51.6894182,72.2065895 52.0893113,71.2092609 L17.998423,71.2092609 C18.2983429,72.2065895 18.698236,73.1041852 19.0981291,74.0017809 Z" id="形状" fill="#380505"></path>
            <path d="M29.2954036,40.890472 C33.3943081,43.9821906 39.1927583,43.2840606 42.3919032,39.1950134 C45.5910481,35.1059662 44.7912619,29.3214604 40.6923574,26.1300089 C36.593453,22.9385574 30.7950028,23.7364203 27.5958578,27.8254675 C24.3967129,31.9145147 25.1964991,37.7987533 29.2954036,40.890472 Z" id="路径" fill="#F26B6B"></path>
            <path d="M43.1916894,39.7934105 C39.6926247,44.2813891 33.1943615,45.1789849 28.6955639,41.6883348 C24.1967663,38.1976848 23.2970068,31.715049 26.7960716,27.2270703 C30.2951364,22.7390917 36.7933995,21.841496 41.2921971,25.332146 C45.7909947,28.8227961 46.6907542,35.3054319 43.1916894,39.7934105 Z M28.3956441,28.5235975 C25.5963923,32.1139804 26.2962052,37.300089 29.8952433,40.0926091 C33.4942813,42.8851291 38.7928651,42.1869991 41.4921437,38.5966162 C44.2913955,35.0062333 43.5915825,29.8201247 39.9925445,27.0276046 C36.3935064,24.2350846 31.1948959,24.9332146 28.3956441,28.5235975 Z" id="形状" fill="#380505"></path>
            <path d="M30.8949761,26.9278718 C33.4942813,25.7310775 36.593453,26.7284061 38.7928651,28.8227961 C43.5915825,33.4105076 39.3927048,40.0926091 38.6928919,40.5912734 C39.7925979,40.0926091 40.7923307,39.2947462 41.592117,38.2974176 C44.2913955,34.8067676 43.5915825,29.9198575 40.0925178,27.2270703 C37.3932392,25.0329475 33.5942546,25.0329475 30.8949761,26.9278718 Z" id="路径" fill="#FCEBEB"></path>
        </g>
    </g>
</svg>